<svg xmlns="http://www.w3.org/2000/svg" viewBox="0 0 24 24" width="32" height="32" fill="#25D366">
  <path d="M12.04 2C6.48 2 2 6.48 2 12.01c0 1.99.52 3.84 1.42 5.47L2 22l4.7-1.37A9.95 9.95 0 0012.04 22C17.6 22 22.08 17.52 22.08 12c0-5.52-4.48-10-10.04-10zM17.1 15.1c-.28.78-1.64 1.5-2.26 1.57-.56.06-1.04.09-2.3-.45-1.26-.54-2.1-.85-3.18.1-.14.13-.8.7-1.26.4-.43-.28-1.6-1.87-2.05-3.14-.42-1.19.5-2.1 1.37-2.72C8.52 8.7 10 8.63 11 8.7c1.02.07 1.55.66 2.46 1.02.9.36 1.7.06 2.3-.06.6-.12 1.44-.3 1.55.9.1 1.2-.04 2.06-.16 2.64z"></path>
</svg>
